<svg id="svg" version="1.1" xmlns="http://www.w3.org/2000/svg" xmlns:xlink="http://www.w3.org/1999/xlink" width="400" height="400" viewBox="0, 0, 400,400"><g id="svgg"><path id="path0" d="M315.106 19.352 C 314.680 19.676,312.587 19.982,309.676 20.147 C 306.143 20.347,304.546 20.616,303.386 21.207 C 302.531 21.643,301.357 22.000,300.777 22.000 C 300.198 22.000,299.398 22.360,299.000 22.800 C 298.602 23.240,298.001 23.600,297.665 23.600 C 296.807 23.600,289.799 27.078,289.198 27.802 C 288.925 28.131,288.318 28.400,287.848 28.400 C 287.265 28.400,283.702 31.694,276.600 38.800 L 266.206 49.200 264.352 49.200 C 263.216 49.200,262.311 48.974,262.014 48.617 C 261.258 47.706,253.519 43.997,252.376 43.999 C 251.814 43.999,251.004 43.736,250.576 43.413 C 250.149 43.090,249.343 42.820,248.785 42.813 C 248.226 42.806,247.084 42.451,246.247 42.024 C 245.410 41.597,243.707 41.128,242.463 40.982 C 241.218 40.835,239.827 40.481,239.372 40.195 C 238.916 39.909,237.476 39.549,236.172 39.395 C 234.867 39.241,233.414 38.873,232.943 38.577 C 232.429 38.253,230.188 37.932,227.343 37.773 C 223.989 37.585,222.307 37.316,221.600 36.854 C 220.071 35.854,179.117 35.859,177.600 36.860 C 176.941 37.294,175.242 37.616,172.620 37.803 C 170.431 37.959,168.271 38.327,167.820 38.620 C 167.369 38.914,165.592 39.280,163.871 39.435 C 162.145 39.590,160.090 40.048,159.287 40.458 C 158.486 40.866,157.097 41.200,156.200 41.200 C 155.303 41.200,153.863 41.560,153.000 42.000 C 152.137 42.440,151.057 42.800,150.600 42.800 C 150.143 42.800,149.063 43.160,148.200 43.600 C 147.337 44.040,146.257 44.400,145.800 44.400 C 145.343 44.400,144.263 44.760,143.400 45.200 C 142.537 45.640,141.357 46.000,140.777 46.000 C 140.198 46.000,139.398 46.360,139.000 46.800 C 138.602 47.240,137.986 47.600,137.630 47.600 C 137.275 47.600,135.552 48.320,133.800 49.200 C 132.048 50.080,130.145 50.800,129.570 50.800 C 128.994 50.800,128.198 51.160,127.800 51.600 C 127.402 52.040,126.682 52.400,126.200 52.400 C 125.718 52.400,124.998 52.760,124.600 53.200 C 124.202 53.640,123.482 54.000,123.000 54.000 C 122.518 54.000,121.798 54.360,121.400 54.800 C 121.002 55.240,120.285 55.600,119.808 55.600 C 119.330 55.600,118.503 56.072,117.970 56.648 C 117.436 57.225,116.277 58.010,115.394 58.394 C 114.511 58.777,113.544 59.385,113.245 59.745 C 112.947 60.105,112.312 60.400,111.836 60.400 C 111.326 60.400,110.161 61.221,109.004 62.396 C 107.923 63.493,106.479 64.576,105.794 64.802 C 105.110 65.028,103.850 65.930,102.994 66.806 C 102.138 67.683,101.083 68.400,100.650 68.400 C 100.183 68.400,97.873 70.351,94.968 73.200 C 92.271 75.844,89.739 78.000,89.331 78.000 C 88.301 78.000,76.400 89.976,76.400 91.012 C 76.400 91.497,74.814 93.395,72.400 95.800 C 70.113 98.078,68.400 100.113,68.400 100.551 C 68.400 100.972,67.590 102.183,66.600 103.241 C 65.610 104.300,64.800 105.432,64.800 105.759 C 64.800 106.085,64.080 107.183,63.200 108.200 C 62.320 109.217,61.600 110.297,61.600 110.600 C 61.600 110.903,60.880 111.983,60.000 113.000 C 59.120 114.017,58.400 115.107,58.400 115.423 C 58.400 115.739,57.770 116.695,57.000 117.547 C 56.230 118.400,55.600 119.452,55.600 119.886 C 55.600 120.321,55.240 121.002,54.800 121.400 C 54.360 121.798,54.000 122.518,54.000 123.000 C 54.000 123.482,53.640 124.202,53.200 124.600 C 52.760 124.998,52.400 125.718,52.400 126.200 C 52.400 126.682,52.040 127.402,51.600 127.800 C 51.160 128.198,50.800 128.993,50.800 129.567 C 50.800 130.141,49.720 132.766,48.400 135.400 C 47.080 138.034,46.000 140.559,46.000 141.010 C 46.000 141.462,45.640 142.537,45.200 143.400 C 44.760 144.263,44.400 145.343,44.400 145.800 C 44.400 146.257,44.040 147.337,43.600 148.200 C 43.160 149.063,42.800 150.143,42.800 150.600 C 42.800 151.057,42.440 152.137,42.000 153.000 C 41.560 153.863,41.200 155.303,41.200 156.200 C 41.200 157.097,40.866 158.486,40.458 159.287 C 40.048 160.090,39.590 162.145,39.435 163.871 C 39.280 165.592,38.903 167.386,38.596 167.857 C 38.247 168.393,37.938 170.491,37.773 173.457 C 37.585 176.811,37.316 178.493,36.854 179.200 C 35.859 180.721,35.859 220.079,36.854 221.600 C 37.294 222.273,37.577 223.862,37.720 226.462 C 37.849 228.822,38.159 230.688,38.518 231.262 C 38.841 231.778,39.214 233.598,39.348 235.307 C 39.482 237.016,39.844 238.816,40.153 239.307 C 40.462 239.798,40.841 241.267,40.995 242.572 C 41.149 243.876,41.509 245.316,41.795 245.772 C 42.081 246.227,42.435 247.618,42.582 248.863 C 42.728 250.107,43.197 251.810,43.624 252.647 C 44.051 253.484,44.400 254.539,44.400 254.992 C 44.400 255.445,45.120 257.248,46.000 259.000 C 46.880 260.752,47.600 262.551,47.600 262.997 C 47.600 263.444,48.680 265.966,50.000 268.600 C 51.320 271.234,52.400 273.856,52.400 274.425 C 52.400 275.029,52.837 275.865,53.448 276.430 C 54.025 276.964,54.810 278.123,55.194 279.006 C 55.577 279.889,56.185 280.856,56.545 281.155 C 56.905 281.453,57.200 282.095,57.200 282.579 C 57.200 283.064,57.672 283.897,58.248 284.430 C 58.825 284.964,59.610 286.123,59.994 287.006 C 60.377 287.889,60.985 288.856,61.345 289.155 C 61.705 289.453,62.000 290.089,62.000 290.568 C 62.000 291.056,62.703 292.124,63.600 293.000 C 64.480 293.859,65.200 294.918,65.200 295.352 C 65.200 295.795,66.520 297.499,68.200 299.225 C 69.850 300.921,71.200 302.637,71.200 303.040 C 71.200 304.093,96.349 329.200,97.404 329.200 C 97.877 329.200,99.232 330.218,100.600 331.600 C 101.987 333.002,103.321 334.000,103.806 334.000 C 104.264 334.000,105.338 334.717,106.194 335.594 C 107.050 336.470,108.317 337.374,109.009 337.603 C 109.702 337.832,110.781 338.554,111.409 339.209 C 112.036 339.864,112.929 340.400,113.394 340.400 C 113.858 340.400,114.941 341.120,115.800 342.000 C 116.662 342.882,117.747 343.600,118.219 343.600 C 118.690 343.600,119.402 343.960,119.800 344.400 C 120.198 344.840,120.924 345.200,121.413 345.200 C 121.902 345.200,122.533 345.478,122.816 345.819 C 123.416 346.542,127.203 348.400,128.077 348.400 C 128.406 348.400,129.002 348.760,129.400 349.200 C 129.798 349.640,130.594 350.000,131.170 350.000 C 131.745 350.000,133.648 350.720,135.400 351.600 C 137.152 352.480,138.875 353.200,139.230 353.200 C 139.586 353.200,140.202 353.560,140.600 354.000 C 140.998 354.440,141.798 354.800,142.377 354.800 C 142.957 354.800,144.137 355.160,145.000 355.600 C 145.863 356.040,146.943 356.400,147.400 356.400 C 147.857 356.400,148.916 356.749,149.753 357.176 C 150.590 357.603,152.293 358.072,153.537 358.218 C 154.782 358.365,156.173 358.719,156.628 359.005 C 157.084 359.291,158.524 359.651,159.828 359.805 C 161.133 359.959,162.560 360.308,163.000 360.581 C 163.440 360.855,165.240 361.206,167.000 361.362 C 168.760 361.518,170.579 361.893,171.042 362.195 C 171.612 362.565,173.943 362.831,178.242 363.016 C 182.558 363.201,184.885 363.468,185.486 363.845 C 186.786 364.660,212.414 364.660,213.714 363.845 C 214.315 363.468,216.642 363.201,220.958 363.016 C 225.257 362.831,227.588 362.565,228.158 362.195 C 228.621 361.893,230.440 361.518,232.200 361.362 C 233.960 361.206,235.760 360.855,236.200 360.581 C 236.640 360.308,238.067 359.959,239.372 359.805 C 240.676 359.651,242.116 359.291,242.572 359.005 C 243.027 358.719,244.418 358.365,245.663 358.218 C 246.907 358.072,248.610 357.603,249.447 357.176 C 250.284 356.749,251.343 356.400,251.800 356.400 C 252.257 356.400,253.337 356.040,254.200 355.600 C 255.063 355.160,256.139 354.800,256.592 354.800 C 257.045 354.800,258.848 354.080,260.600 353.200 C 262.352 352.320,264.255 351.600,264.830 351.600 C 265.406 351.600,266.202 351.240,266.600 350.800 C 266.998 350.360,267.602 350.000,267.941 350.000 C 268.794 350.000,279.010 344.911,279.611 344.187 C 279.879 343.864,280.498 343.600,280.987 343.600 C 281.476 343.600,282.202 343.240,282.600 342.800 C 282.998 342.360,283.710 342.000,284.181 342.000 C 284.653 342.000,285.738 341.282,286.600 340.400 C 287.459 339.520,288.539 338.800,289.000 338.800 C 289.461 338.800,290.541 338.080,291.400 337.200 C 292.259 336.320,293.336 335.600,293.794 335.600 C 294.279 335.600,295.613 334.602,297.000 333.200 C 298.312 331.874,299.729 330.800,300.167 330.800 C 300.641 330.800,302.832 328.951,305.617 326.200 C 308.178 323.670,310.603 321.600,311.005 321.600 C 312.048 321.600,322.800 310.853,322.800 309.811 C 322.800 309.297,324.311 307.479,326.800 305.000 C 329.270 302.539,330.800 300.701,330.800 300.195 C 330.800 299.723,331.819 298.366,333.200 297.000 C 334.602 295.613,335.600 294.279,335.600 293.794 C 335.600 293.336,336.320 292.259,337.200 291.400 C 338.080 290.541,338.800 289.461,338.800 289.000 C 338.800 288.539,339.520 287.459,340.400 286.600 C 341.282 285.738,342.000 284.653,342.000 284.181 C 342.000 283.710,342.360 282.998,342.800 282.600 C 343.240 282.202,343.600 281.476,343.600 280.987 C 343.600 280.498,343.861 279.881,344.181 279.616 C 344.990 278.945,351.600 265.544,351.600 264.576 C 351.600 264.141,352.320 262.352,353.200 260.600 C 354.080 258.848,354.800 257.045,354.800 256.592 C 354.800 256.139,355.160 255.063,355.600 254.200 C 356.040 253.337,356.400 252.257,356.400 251.800 C 356.400 251.343,356.749 250.284,357.176 249.447 C 357.603 248.610,358.072 246.907,358.218 245.663 C 358.365 244.418,358.719 243.027,359.005 242.572 C 359.291 242.116,359.651 240.676,359.805 239.372 C 359.959 238.067,360.316 236.631,360.599 236.180 C 360.882 235.729,361.241 233.569,361.397 231.380 C 361.561 229.074,361.923 227.017,362.257 226.489 C 362.661 225.850,362.901 223.765,363.062 219.489 C 363.210 215.569,363.489 212.986,363.846 212.239 C 364.649 210.555,364.648 190.242,363.845 188.561 C 363.470 187.777,363.221 185.171,363.077 180.535 C 362.921 175.507,362.708 173.420,362.280 172.735 C 361.958 172.221,361.586 170.402,361.452 168.693 C 361.318 166.984,360.947 165.184,360.628 164.693 C 360.308 164.202,359.920 162.392,359.765 160.671 C 359.610 158.945,359.152 156.890,358.742 156.087 C 358.334 155.286,357.994 154.174,357.987 153.615 C 357.980 153.057,357.710 152.251,357.387 151.824 C 357.064 151.396,356.800 150.551,356.800 149.945 C 356.800 149.338,356.350 147.996,355.800 146.962 C 355.250 145.927,354.800 144.607,354.800 144.028 C 354.800 143.272,354.124 142.306,352.400 140.600 C 348.801 137.038,348.384 137.809,360.400 125.800 C 367.506 118.698,370.800 115.135,370.800 114.552 C 370.800 114.082,371.095 113.453,371.455 113.155 C 371.815 112.856,372.423 111.889,372.806 111.006 C 373.190 110.123,373.975 108.964,374.552 108.430 C 375.168 107.860,375.600 107.030,375.600 106.415 C 375.600 105.840,375.960 104.663,376.400 103.800 C 376.840 102.937,377.200 101.857,377.200 101.400 C 377.200 100.943,377.549 99.884,377.976 99.047 C 378.403 98.210,378.872 96.507,379.018 95.263 C 379.165 94.018,379.581 92.550,379.942 92.000 C 381.083 90.265,380.843 67.189,379.661 65.015 C 379.188 64.144,378.800 63.013,378.800 62.501 C 378.800 61.990,378.547 61.173,378.238 60.686 C 377.929 60.199,377.553 58.688,377.402 57.330 C 377.218 55.665,376.879 54.634,376.364 54.168 C 375.944 53.787,375.600 53.082,375.600 52.600 C 375.600 52.118,375.240 51.398,374.800 51.000 C 374.360 50.602,374.000 49.890,374.000 49.419 C 374.000 48.947,373.282 47.862,372.400 47.000 C 371.520 46.141,370.800 45.063,370.800 44.604 C 370.800 43.587,356.888 29.600,355.876 29.600 C 355.505 29.600,354.527 29.002,353.701 28.272 C 352.139 26.890,345.833 23.600,344.747 23.600 C 344.404 23.600,343.813 23.256,343.432 22.836 C 342.966 22.321,341.935 21.982,340.270 21.798 C 338.912 21.647,337.363 21.246,336.829 20.906 C 336.153 20.476,334.449 20.231,331.229 20.101 C 328.263 19.980,326.282 19.713,325.714 19.357 C 324.510 18.600,316.101 18.597,315.106 19.352 M328.233 38.072 C 359.127 44.232,372.955 80.886,353.482 105.000 C 352.593 106.100,335.742 123.236,316.033 143.079 C 296.325 162.923,271.830 187.588,261.600 197.891 C 240.566 219.075,239.473 219.912,229.984 222.102 C 229.443 222.227,227.110 222.901,224.800 223.601 C 222.490 224.301,218.800 225.378,216.600 225.995 C 214.400 226.612,207.830 228.498,202.000 230.187 C 196.170 231.876,190.500 233.505,189.400 233.809 C 188.300 234.112,183.545 235.449,178.833 236.780 C 161.511 241.673,159.554 239.554,164.818 221.600 C 166.447 216.045,166.927 214.374,167.922 210.800 C 168.382 209.150,170.402 202.130,172.411 195.200 C 174.420 188.270,176.213 182.060,176.396 181.400 C 181.445 163.145,182.181 161.527,188.400 155.015 C 190.930 152.366,193.977 149.119,195.170 147.799 C 201.055 141.294,296.046 46.552,298.288 44.952 C 306.889 38.814,318.536 36.138,328.233 38.072 M213.600 54.588 C 238.481 57.043,244.931 61.307,236.221 69.545 C 231.932 73.601,228.920 74.159,219.200 72.698 C 213.796 71.886,187.075 71.684,182.446 72.421 C 180.991 72.653,178.540 73.027,177.000 73.252 C 156.514 76.247,132.075 87.824,114.600 102.810 C 93.885 120.574,77.216 150.490,73.260 177.000 C 73.030 178.540,72.653 180.991,72.421 182.446 C 71.741 186.718,71.878 213.789,72.605 218.973 C 79.461 267.809,112.906 307.320,160.437 322.736 C 183.703 330.282,216.878 330.199,240.200 322.535 C 279.929 309.481,309.481 279.929,322.535 240.200 C 324.980 232.761,326.126 227.634,327.410 218.400 C 328.135 213.180,328.238 186.823,327.548 182.800 C 325.957 173.514,326.849 169.073,331.179 164.741 C 336.987 158.927,340.361 160.191,342.553 169.001 C 350.357 200.364,344.465 241.164,327.988 269.869 C 308.838 303.228,276.768 329.470,243.000 339.413 C 241.020 339.996,238.860 340.640,238.200 340.844 C 228.263 343.921,212.841 346.000,200.000 345.994 C 147.611 345.969,99.902 317.824,72.607 270.840 C 69.757 265.935,68.910 264.263,65.880 257.564 C 55.687 235.022,51.418 202.815,55.439 178.800 C 57.573 166.055,61.871 151.215,66.098 142.000 C 66.754 140.570,67.701 138.475,68.203 137.345 C 74.323 123.568,88.239 105.155,101.996 92.630 C 120.138 76.114,136.404 66.886,160.200 59.610 C 175.724 54.864,196.541 52.906,213.600 54.588 M316.208 55.393 C 307.727 56.881,306.650 57.775,276.200 88.569 C 262.780 102.141,240.169 124.980,225.954 139.323 C 200.058 165.451,198.837 166.805,197.121 171.302 C 196.420 173.140,192.442 186.573,190.400 194.000 C 190.006 195.430,189.055 198.760,188.286 201.400 C 184.541 214.254,187.335 216.741,201.097 212.804 C 202.690 212.348,205.210 211.633,206.697 211.214 C 221.371 207.083,229.487 204.559,232.000 203.346 C 235.812 201.507,334.210 103.339,340.142 95.457 C 354.349 76.580,339.274 51.345,316.208 55.393 M324.209 75.251 C 325.984 76.887,326.000 76.925,326.000 79.554 L 326.000 82.205 314.800 93.400 C 307.580 100.616,303.600 104.880,303.600 105.397 C 303.600 106.356,223.342 186.800,222.385 186.800 C 222.046 186.800,221.063 187.160,220.200 187.600 C 219.337 188.040,218.257 188.400,217.800 188.400 C 217.343 188.400,216.263 188.760,215.400 189.200 C 212.607 190.624,210.526 190.088,211.728 188.254 C 212.056 187.753,212.451 186.276,212.605 184.972 C 212.759 183.667,213.136 182.201,213.442 181.714 C 213.749 181.227,214.000 180.506,214.000 180.113 C 214.000 179.700,224.821 168.577,239.600 153.800 C 256.401 137.000,265.200 127.927,265.200 127.402 C 265.200 126.308,316.687 74.805,317.799 74.787 C 318.239 74.780,318.949 74.510,319.376 74.187 C 320.766 73.136,322.276 73.469,324.209 75.251 M209.424 90.187 C 209.944 90.581,211.254 90.787,213.400 90.811 C 217.888 90.862,220.309 91.331,221.324 92.346 L 222.188 93.210 195.694 119.706 C 177.916 137.485,169.200 146.471,169.200 147.020 C 169.200 147.470,168.480 148.541,167.600 149.400 C 166.549 150.427,166.000 151.317,166.000 151.997 C 166.000 152.565,165.640 153.737,165.200 154.600 C 164.760 155.463,164.400 156.543,164.400 157.000 C 164.400 157.457,164.040 158.537,163.600 159.400 C 163.160 160.263,162.800 161.343,162.800 161.800 C 162.800 162.257,162.440 163.337,162.000 164.200 C 161.560 165.063,161.200 166.143,161.200 166.600 C 161.200 167.057,160.851 168.116,160.424 168.953 C 159.997 169.790,159.528 171.493,159.382 172.737 C 159.235 173.982,158.864 175.399,158.558 175.886 C 158.251 176.373,158.000 177.190,158.000 177.701 C 158.000 178.213,157.651 179.316,157.224 180.153 C 156.797 180.990,156.328 182.693,156.182 183.937 C 156.035 185.182,155.664 186.599,155.358 187.086 C 155.051 187.573,154.800 188.390,154.800 188.901 C 154.800 189.413,154.451 190.516,154.024 191.353 C 153.597 192.190,153.128 193.893,152.982 195.137 C 152.835 196.382,152.464 197.799,152.158 198.286 C 151.851 198.773,151.600 199.590,151.600 200.101 C 151.600 200.613,151.251 201.716,150.824 202.553 C 150.397 203.390,149.928 205.093,149.782 206.337 C 149.635 207.582,149.264 208.999,148.958 209.486 C 148.651 209.973,148.400 210.790,148.400 211.301 C 148.400 211.813,148.051 212.916,147.624 213.753 C 147.197 214.590,146.728 216.293,146.582 217.537 C 146.435 218.782,146.064 220.199,145.758 220.686 C 145.451 221.173,145.200 221.990,145.200 222.501 C 145.200 223.013,144.809 224.144,144.331 225.015 C 142.959 227.514,142.935 244.240,144.300 245.694 C 144.795 246.220,145.200 247.004,145.200 247.434 C 145.200 249.465,154.578 257.200,157.042 257.200 C 157.476 257.200,158.537 257.560,159.400 258.000 C 161.398 259.019,169.056 259.173,170.514 258.223 C 171.001 257.906,172.808 257.520,174.529 257.365 C 176.255 257.210,178.310 256.752,179.113 256.342 C 179.914 255.934,180.987 255.600,181.499 255.600 C 182.010 255.600,182.827 255.349,183.314 255.042 C 183.801 254.736,185.218 254.365,186.463 254.218 C 187.707 254.072,189.410 253.603,190.247 253.176 C 191.084 252.749,192.187 252.400,192.699 252.400 C 193.210 252.400,194.027 252.149,194.514 251.842 C 195.001 251.536,196.418 251.165,197.663 251.018 C 198.907 250.872,200.610 250.403,201.447 249.976 C 202.284 249.549,203.387 249.200,203.899 249.200 C 204.410 249.200,205.227 248.949,205.714 248.642 C 206.201 248.336,207.618 247.965,208.863 247.818 C 210.107 247.672,211.810 247.203,212.647 246.776 C 213.484 246.349,214.543 246.000,215.000 246.000 C 215.457 246.000,216.537 245.640,217.400 245.200 C 218.263 244.760,219.703 244.400,220.600 244.400 C 221.497 244.400,222.937 244.040,223.800 243.600 C 224.663 243.160,225.743 242.800,226.200 242.800 C 226.657 242.800,227.737 242.440,228.600 242.000 C 229.463 241.560,230.903 241.200,231.800 241.200 C 232.697 241.200,234.137 240.840,235.000 240.400 C 235.863 239.960,236.943 239.600,237.400 239.600 C 237.857 239.600,238.937 239.240,239.800 238.800 C 240.663 238.360,241.743 238.000,242.200 238.000 C 242.657 238.000,243.737 237.640,244.600 237.200 C 245.463 236.760,246.643 236.400,247.223 236.400 C 247.802 236.400,248.602 236.040,249.000 235.600 C 249.398 235.160,250.107 234.800,250.575 234.800 C 251.083 234.800,252.379 233.836,253.800 232.400 C 255.149 231.037,256.525 230.000,256.986 230.000 C 258.102 230.000,290.800 197.314,290.800 196.198 C 290.800 195.166,307.319 178.579,307.955 178.972 C 308.200 179.123,308.400 179.603,308.400 180.038 C 308.400 180.472,308.715 181.309,309.100 181.896 C 310.121 183.455,310.177 215.656,309.161 217.218 C 308.802 217.770,308.398 219.601,308.238 221.400 C 308.082 223.160,307.711 224.973,307.415 225.428 C 307.118 225.884,306.743 227.314,306.582 228.606 C 306.405 230.026,305.756 231.977,304.944 233.535 C 304.205 234.953,303.600 236.500,303.600 236.972 C 303.600 237.444,303.240 238.537,302.800 239.400 C 302.360 240.263,302.000 241.263,302.000 241.623 C 302.000 241.982,301.640 242.602,301.200 243.000 C 300.760 243.398,300.400 244.118,300.400 244.600 C 300.400 245.082,300.040 245.802,299.600 246.200 C 299.160 246.598,298.800 247.318,298.800 247.800 C 298.800 248.282,298.440 249.002,298.000 249.400 C 297.560 249.798,297.200 250.518,297.200 251.000 C 297.200 251.482,296.840 252.202,296.400 252.600 C 295.960 252.998,295.600 253.724,295.600 254.213 C 295.600 254.702,295.305 255.347,294.945 255.645 C 294.585 255.944,293.977 256.911,293.594 257.794 C 293.210 258.677,292.425 259.836,291.848 260.370 C 291.272 260.903,290.800 261.719,290.800 262.182 C 290.800 262.682,289.823 263.992,288.400 265.400 C 287.027 266.759,286.000 268.124,286.000 268.591 C 286.000 269.705,269.698 286.000,268.584 286.000 C 268.126 286.000,266.745 287.041,265.400 288.400 C 263.992 289.823,262.682 290.800,262.182 290.800 C 261.719 290.800,260.903 291.272,260.370 291.848 C 259.836 292.425,258.677 293.210,257.794 293.594 C 256.911 293.977,255.944 294.585,255.645 294.945 C 255.347 295.305,254.702 295.600,254.213 295.600 C 253.724 295.600,252.998 295.960,252.600 296.400 C 252.202 296.840,251.482 297.200,251.000 297.200 C 250.518 297.200,249.798 297.560,249.400 298.000 C 249.002 298.440,248.282 298.800,247.800 298.800 C 247.318 298.800,246.598 299.160,246.200 299.600 C 245.802 300.040,245.082 300.400,244.600 300.400 C 244.118 300.400,243.398 300.760,243.000 301.200 C 242.602 301.640,241.982 302.000,241.623 302.000 C 241.263 302.000,240.263 302.360,239.400 302.800 C 238.537 303.240,237.457 303.600,237.000 303.600 C 236.543 303.600,235.463 303.960,234.600 304.400 C 233.737 304.840,232.657 305.200,232.200 305.200 C 231.743 305.200,230.663 305.560,229.800 306.000 C 228.937 306.440,227.813 306.800,227.301 306.800 C 226.790 306.800,225.973 307.060,225.486 307.377 C 224.999 307.694,223.160 308.082,221.400 308.238 C 219.601 308.398,217.770 308.802,217.218 309.161 C 215.735 310.126,185.065 310.126,183.582 309.161 C 183.030 308.802,181.199 308.398,179.400 308.238 C 177.640 308.082,175.827 307.711,175.372 307.415 C 174.916 307.118,173.476 306.749,172.172 306.595 C 170.867 306.441,169.401 306.064,168.914 305.758 C 168.427 305.451,167.610 305.200,167.099 305.200 C 166.587 305.200,165.463 304.840,164.600 304.400 C 163.737 303.960,162.667 303.600,162.223 303.600 C 160.966 303.600,143.583 294.812,141.899 293.325 C 141.073 292.596,140.139 292.000,139.823 292.000 C 139.507 292.000,138.417 291.280,137.400 290.400 C 136.383 289.520,135.279 288.800,134.946 288.800 C 134.614 288.800,132.838 287.360,131.000 285.600 C 129.162 283.840,127.349 282.400,126.971 282.400 C 125.957 282.400,118.000 274.431,118.000 273.415 C 118.000 272.905,116.758 271.347,114.800 269.400 C 112.860 267.471,111.600 265.894,111.600 265.393 C 111.600 264.936,110.777 263.770,109.758 262.783 C 108.744 261.802,107.599 260.277,107.212 259.394 C 106.826 258.511,106.215 257.544,105.855 257.245 C 105.495 256.947,105.200 256.302,105.200 255.813 C 105.200 255.324,104.840 254.598,104.400 254.200 C 103.960 253.802,103.600 253.082,103.600 252.600 C 103.600 252.118,103.240 251.398,102.800 251.000 C 102.360 250.602,102.000 249.882,102.000 249.400 C 102.000 248.918,101.640 248.198,101.200 247.800 C 100.760 247.402,100.400 246.682,100.400 246.200 C 100.400 245.718,100.040 244.998,99.600 244.600 C 99.160 244.202,98.800 243.586,98.800 243.230 C 98.800 242.875,98.080 241.152,97.200 239.400 C 96.320 237.648,95.600 235.845,95.600 235.392 C 95.600 234.939,95.240 233.863,94.800 233.000 C 94.360 232.137,94.000 231.013,94.000 230.501 C 94.000 229.990,93.749 229.173,93.442 228.686 C 93.136 228.199,92.759 226.733,92.605 225.428 C 92.451 224.124,92.090 222.684,91.803 222.228 C 91.516 221.773,91.155 219.631,91.001 217.469 C 90.847 215.307,90.470 213.057,90.163 212.469 C 89.367 210.944,89.348 188.293,90.141 186.773 C 90.435 186.209,90.805 184.319,90.961 182.573 C 91.118 180.828,91.506 179.001,91.823 178.514 C 92.140 178.027,92.400 176.850,92.400 175.899 C 92.400 174.947,92.749 173.484,93.176 172.647 C 93.603 171.810,94.078 170.117,94.232 168.885 C 94.395 167.578,95.072 165.568,95.856 164.065 C 96.595 162.647,97.200 161.114,97.200 160.660 C 97.200 159.443,104.638 144.692,105.803 143.597 C 106.351 143.082,106.800 142.278,106.800 141.811 C 106.800 141.344,107.520 140.259,108.400 139.400 C 109.280 138.541,110.000 137.461,110.000 137.000 C 110.000 136.539,110.717 135.462,111.594 134.606 C 112.470 133.750,113.372 132.492,113.597 131.810 C 114.098 130.290,130.720 113.600,131.731 113.600 C 132.110 113.600,133.581 112.520,135.000 111.200 C 136.419 109.880,137.841 108.800,138.159 108.800 C 138.478 108.800,139.273 108.350,139.927 107.800 C 140.581 107.250,141.463 106.800,141.888 106.800 C 142.313 106.800,143.082 106.351,143.597 105.803 C 144.677 104.653,159.436 97.200,160.632 97.200 C 161.071 97.200,162.137 96.840,163.000 96.400 C 163.863 95.960,164.943 95.600,165.400 95.600 C 165.857 95.600,166.937 95.240,167.800 94.800 C 168.663 94.360,169.787 94.000,170.299 94.000 C 170.810 94.000,171.627 93.749,172.114 93.442 C 172.601 93.136,174.067 92.759,175.372 92.605 C 176.676 92.451,178.116 92.084,178.572 91.791 C 179.064 91.474,181.347 91.142,184.200 90.973 C 187.164 90.798,189.302 90.481,189.789 90.145 C 190.982 89.321,208.328 89.358,209.424 90.187 " stroke="none" fill="#fcfcfc" fill-rule="evenodd"></path><path id="path1" d="M313.400 38.195 C 308.369 39.243,302.796 41.735,298.288 44.952 C 296.046 46.552,201.055 141.294,195.170 147.799 C 193.977 149.119,190.930 152.366,188.400 155.015 C 182.181 161.527,181.445 163.145,176.396 181.400 C 176.213 182.060,174.420 188.270,172.411 195.200 C 170.402 202.130,168.382 209.150,167.922 210.800 C 166.927 214.374,166.447 216.045,164.818 221.600 C 159.554 239.554,161.511 241.673,178.833 236.780 C 183.545 235.449,188.300 234.112,189.400 233.809 C 190.500 233.505,196.170 231.876,202.000 230.187 C 207.830 228.498,214.400 226.612,216.600 225.995 C 218.800 225.378,222.490 224.301,224.800 223.601 C 227.110 222.901,229.443 222.227,229.984 222.102 C 239.473 219.912,240.566 219.075,261.600 197.891 C 271.830 187.588,296.325 162.923,316.033 143.079 C 352.391 106.472,353.830 104.965,356.736 100.458 C 375.367 71.556,347.241 31.145,313.400 38.195 M187.600 54.446 C 177.776 55.425,167.643 57.334,160.200 59.610 C 136.404 66.886,120.138 76.114,101.996 92.630 C 88.239 105.155,74.323 123.568,68.203 137.345 C 67.701 138.475,66.754 140.570,66.098 142.000 C 61.871 151.215,57.573 166.055,55.439 178.800 C 51.418 202.815,55.687 235.022,65.880 257.564 C 68.910 264.263,69.757 265.935,72.607 270.840 C 93.607 306.988,127.010 332.417,166.000 341.940 C 189.358 347.644,217.624 347.215,238.200 340.844 C 238.860 340.640,241.020 339.996,243.000 339.413 C 276.768 329.470,308.838 303.228,327.988 269.869 C 344.465 241.164,350.357 200.364,342.553 169.001 C 340.361 160.191,336.987 158.927,331.179 164.741 C 326.849 169.073,325.957 173.514,327.548 182.800 C 328.238 186.823,328.135 213.180,327.410 218.400 C 325.212 234.215,322.274 243.459,314.529 258.939 C 300.165 287.647,278.986 306.989,248.000 319.695 C 222.814 330.024,186.766 331.276,160.437 322.736 C 112.906 307.320,79.461 267.809,72.605 218.973 C 71.878 213.789,71.741 186.718,72.421 182.446 C 72.653 180.991,73.030 178.540,73.260 177.000 C 77.216 150.490,93.885 120.574,114.600 102.810 C 132.075 87.824,156.514 76.247,177.000 73.252 C 178.540 73.027,180.991 72.653,182.446 72.421 C 187.075 71.684,213.796 71.886,219.200 72.698 C 228.920 74.159,231.932 73.601,236.221 69.545 C 240.428 65.566,241.013 62.378,237.984 59.937 C 233.023 55.940,204.168 52.795,187.600 54.446 M327.829 55.822 C 344.633 60.178,351.078 80.925,340.142 95.457 C 334.210 103.339,235.812 201.507,232.000 203.346 C 229.487 204.559,221.371 207.083,206.697 211.214 C 205.210 211.633,202.690 212.348,201.097 212.804 C 187.335 216.741,184.541 214.254,188.286 201.400 C 189.055 198.760,190.006 195.430,190.400 194.000 C 192.442 186.573,196.420 173.140,197.121 171.302 C 198.837 166.805,200.058 165.451,225.954 139.323 C 240.169 124.980,262.780 102.141,276.200 88.569 C 289.620 74.997,301.770 62.915,303.200 61.720 C 310.268 55.814,319.381 53.631,327.829 55.822 " stroke="none" fill="#040404" fill-rule="evenodd"></path></g></svg>